HIERARCHY
ROOT Hips
{
  OFFSET 46.4675 84.1771 -6.92114
  CHANNELS 6 Xposition Yposition Zposition Zrotation Xrotation Yrotation
  JOINT spine
  {
    OFFSET 0 6.24479 0.359107
    CHANNELS 3 Zrotation Xrotation Yrotation
    JOINT spine1
    {
      OFFSET 0 9.06941 0
      CHANNELS 3 Zrotation Xrotation Yrotation
      JOINT spine2
      {
        OFFSET 0 8.69014 0
        CHANNELS 3 Zrotation Xrotation Yrotation
        JOINT Neck
        {
          OFFSET 0 22.3112 1.06372
          CHANNELS 3 Zrotation Xrotation Yrotation
          JOINT Head
          {
            OFFSET 0 6.74081 0
            CHANNELS 3 Zrotation Xrotation Yrotation
            End Site
            {
              OFFSET 0 16.3165 -5.38097
            }
          }
        }
        JOINT RightShoulder
        {
          OFFSET -3.65916 9.38468 -0.509514
          CHANNELS 3 Zrotation Xrotation Yrotation
          JOINT RightArm
          {
            OFFSET 0 12.3089 0
            CHANNELS 3 Zrotation Xrotation Yrotation
            JOINT RightArmRoll
            {
              OFFSET 0 6.21375 0
              CHANNELS 3 Zrotation Xrotation Yrotation
              JOINT RightForeArm
              {
                OFFSET 0 18.0985 0
                CHANNELS 3 Zrotation Xrotation Yrotation
                JOINT RightForeArmRoll
                {
                  OFFSET 0 6.97279 0
                  CHANNELS 3 Zrotation Xrotation Yrotation
                  JOINT RightHand
                  {
                    OFFSET 0 13.9929 0
                    CHANNELS 3 Zrotation Xrotation Yrotation
                    End Site
                    {
                      OFFSET 0 0 0
                    }
                  }
                }
              }
            }
          }
        }
        JOINT LeftShoulder
        {
          OFFSET 3.65916 9.38468 -0.509514
          CHANNELS 3 Zrotation Xrotation Yrotation
          JOINT LeftArm
          {
            OFFSET 0 12.3089 0
            CHANNELS 3 Zrotation Xrotation Yrotation
            JOINT LeftArmRoll
            {
              OFFSET 0 6.21375 0
              CHANNELS 3 Zrotation Xrotation Yrotation
              JOINT LeftForeArm
              {
                OFFSET 0 18.0985 0
                CHANNELS 3 Zrotation Xrotation Yrotation
                JOINT LeftForeArmRoll
                {
                  OFFSET 0 6.97279 0
                  CHANNELS 3 Zrotation Xrotation Yrotation
                  JOINT LeftHand
                  {
                    OFFSET 0 13.9929 0
                    CHANNELS 3 Zrotation Xrotation Yrotation
                    End Site
                    {
                      OFFSET 0 0 0
                    }
                  }
                }
              }
            }
          }
        }
      }
    }
  }
  JOINT RightUpLeg
  {
    OFFSET -5.53515 -1.015 -0.851454
    CHANNELS 3 Zrotation Xrotation Yrotation
    JOINT RightUpLegRoll
    {
      OFFSET 0 16.4075 0
      CHANNELS 3 Zrotation Xrotation Yrotation
      JOINT RightLeg
      {
        OFFSET 0 -20.3181 0
        CHANNELS 3 Zrotation Xrotation Yrotation
        JOINT RightLegRoll
        {
          OFFSET 0 20.3846 0
          CHANNELS 3 Zrotation Xrotation Yrotation
          JOINT RightFoot
          {
            OFFSET 0 16.9668 0
            CHANNELS 3 Zrotation Xrotation Yrotation
            JOINT RightToeBase
            {
              OFFSET 0 14.1834 0
              CHANNELS 3 Zrotation Xrotation Yrotation
              End Site
              {
                OFFSET 0.0060118 6.8689 -0.791746
              }
            }
          }
        }
      }
    }
  }
  JOINT LeftUpLeg
  {
    OFFSET 5.53515 -1.015 -0.851454
    CHANNELS 3 Zrotation Xrotation Yrotation
    JOINT LeftUpLegRoll
    {
      OFFSET 0 16.4076 0
      CHANNELS 3 Zrotation Xrotation Yrotation
      JOINT LeftLeg
      {
        OFFSET 0 20.3181 0
        CHANNELS 3 Zrotation Xrotation Yrotation
        JOINT LeftLegRoll
        {
          OFFSET 0 20.5731 0
          CHANNELS 3 Zrotation Xrotation Yrotation
          JOINT LeftFoot
          {
            OFFSET 0 16.7783 0
            CHANNELS 3 Zrotation Xrotation Yrotation
            JOINT LeftToeBase
            {
              OFFSET 0 14.1834 0
              CHANNELS 3 Zrotation Xrotation Yrotation
              End Site
              {
                OFFSET -0.0269423 6.8689 -0.791746
              }
            }
          }
        }
      }
    }
  }
}
MOTION
Frames: 8
Frame Time: 0.00208333
42.5482 89.4719 -5.23599 1.50754 7.47404 -1.3962 -0.439124 -2.29356 -0.0955373 -0.878517 -0.583884 -0.154015 -0.876828 1.06108 -0.139338 -11.8513 -10.8328 -2.47194 7.15158 15.3476 -4.31735 29.3839 -12.5778 -8.88784 55.1969 41.3073 47.15 2.18904e-006 8.97098e-007 1.14985e-006 -0.858815 34.785 -0.543611 5.63958e-006 -4.13891e-006 -3 8.02887 -4.95142 0.697672 -24.0965 -20.9355 19.2281 -17.3389 43.4398 -73.6167 -1.27537e-005 4.92561e-007 -2.32081e-006 8.05055 17.0695 -1.86374 4.99944e-006 -1.05374e-006 3 -8.02984 -4.9515 -0.697673 167.116 15.2855 1.44278 180 7.01581e-015 179.08 -174.799 15.5515 178.334 -3.62913e-006 -5.91952e-006 -0.720184 -16.4932 63.6557 16.482 8.12742 25.1006 -3.63048 -163.648 13.6309 -6.82578 4.54188e-006 -4.6773e-006 -1.06914 2.76455 -18.7281 1.56385 3.40932e-006 7.52221e-007 0.0360414 16.9599 65.9944 -18.0338 -8.12664 25.0891 3.63651 
42.5327 89.7063 -5.21058 1.51175 7.48939 -1.35925 -0.435199 -2.29127 -0.0898078 -0.870847 -0.579355 -0.142269 -0.869299 1.06561 -0.127719 -12.1595 -11.2298 -2.51783 7.38343 15.7588 -4.39881 29.4184 -12.6643 -8.98098 56.2658 41.332 46.3184 2.18904e-006 8.97098e-007 1.14985e-006 -0.76694 34.6113 -0.587361 5.63958e-006 -4.13891e-006 -3 8.02887 -4.95142 0.697672 -24.6146 -20.9995 19.1948 -17.668 43.6972 -73.2748 -1.27537e-005 4.92561e-007 -2.32081e-006 7.9256 17.0079 -1.81311 4.99944e-006 -1.05374e-006 3 -8.02984 -4.9515 -0.697673 167.274 15.2494 1.34639 180 7.0158e-015 179.077 -174.762 15.3521 178.333 -3.62913e-006 -5.91956e-006 -0.695844 -16.5098 63.7704 16.5485 8.13024 25.1405 -3.58743 -163.851 13.5159 -6.68099 4.54188e-006 -4.6773e-006 -1.07084 2.75103 -18.3201 1.54169 3.40932e-006 7.52221e-007 0.0421848 16.9458 65.9787 -18.0235 -8.1297 25.1324 3.59164 
42.5608 89.9253 -5.19881 1.51592 7.50706 -1.32182 -0.430759 -2.28867 -0.0840896 -0.862118 -0.574202 -0.130646 -0.86071 1.07077 -0.11624 -12.4778 -11.6295 -2.56839 7.62339 16.1611 -4.48427 29.4466 -12.76 -9.08403 57.3432 41.3616 45.4925 2.18904e-006 8.97098e-007 1.14985e-006 -0.681514 34.435 -0.629461 5.63958e-006 -4.13891e-006 -3 8.02887 -4.95142 0.697672 -25.1314 -21.0609 19.1582 -18.0029 43.9464 -72.9244 -1.27537e-005 4.92561e-007 -2.32081e-006 7.79797 16.9398 -1.76205 4.99944e-006 -1.05374e-006 3 -8.02984 -4.9515 -0.697673 167.428 15.2193 1.26008 180 7.01579e-015 179.073 -174.737 15.1599 178.335 -3.62913e-006 -5.91959e-006 -0.672617 -16.5231 63.8752 16.6101 8.13272 25.1765 -3.5485 -164.05 13.4147 -6.53957 4.54188e-006 -4.6773e-006 -1.07199 2.73768 -17.9391 1.52101 3.40932e-006 7.52221e-007 0.0475941 16.9343 65.9669 -18.0158 -8.1324 25.1716 3.55107 
42.514 90.1366 -5.18309 1.52027 7.52666 -1.28383 -0.425771 -2.2857 -0.0784322 -0.852258 -0.568308 -0.119263 -0.850987 1.07667 -0.10502 -12.8081 -12.0291 -2.624 7.87301 16.5508 -4.57412 29.468 -12.8645 -9.19682 58.4297 41.3963 44.6721 2.18904e-006 8.97098e-007 1.14985e-006 -0.603386 34.2549 -0.669923 5.63958e-006 -4.13891e-006 -3 8.02887 -4.95142 0.697672 -25.6466 -21.118 19.1162 -18.3446 44.1862 -72.5662 -1.27537e-005 4.92561e-007 -2.32081e-006 7.66832 16.8642 -1.71077 4.99944e-006 -1.05374e-006 3 -8.02984 -4.9515 -0.697673 167.576 15.1934 1.18606 180 7.01578e-015 179.07 -174.729 14.9707 178.339 -3.62913e-006 -5.91962e-006 -0.651869 -16.5307 63.9632 16.6626 8.13471 25.2058 -3.51682 -164.245 13.3282 -6.40219 4.54188e-006 -4.6773e-006 -1.0725 2.72377 -17.5879 1.50165 3.40932e-006 7.52221e-007 0.0521557 16.9256 65.9594 -18.011 -8.13455 25.2034 3.51806 
42.5259 90.3429 -5.20678 1.52502 7.54781 -1.24523 -0.420204 -2.28231 -0.0728848 -0.841195 -0.561557 -0.108239 -0.840057 1.08342 -0.0941798 -13.1522 -12.4257 -2.68502 8.13382 16.9241 -4.66876 29.4819 -12.9779 -9.31918 59.5259 41.4358 43.8573 2.18904e-006 8.97098e-007 1.14985e-006 -0.533408 34.0701 -0.708757 5.63958e-006 -4.13891e-006 -3 8.02887 -4.95142 0.697672 -26.1599 -21.1692 19.0665 -18.6941 44.4153 -72.2006 -1.27537e-005 4.92561e-007 -2.32081e-006 7.53732 16.7803 -1.65949 4.99944e-006 -1.05374e-006 3 -8.02984 -4.9515 -0.697673 167.718 15.1698 1.12653 180 7.01578e-015 179.066 -174.742 14.7804 178.348 -3.62913e-006 -5.91964e-006 -0.63497 -16.5301 64.0273 16.7019 8.13602 25.2255 -3.49553 -164.435 13.2573 -6.26952 4.54188e-006 -4.6773e-006 -1.07228 2.70857 -17.2694 1.48347 3.40932e-006 7.52221e-007 0.055756 16.9205 65.957 -18.0096 -8.13597 25.2248 3.49586 
42.4902 90.54 -5.18322 1.53038 7.57013 -1.20597 -0.414025 -2.27843 -0.0674971 -0.828859 -0.553834 -0.0976925 -0.827846 1.09115 -0.0838385 -13.512 -12.8166 -2.75182 8.40736 17.2772 -4.76853 29.4877 -13.0998 -9.45092 60.632 41.48 43.048 2.18904e-006 8.97098e-007 1.14985e-006 -0.472435 33.8794 -0.745971 5.63958e-006 -4.13891e-006 -3 8.02887 -4.95142 0.697672 -26.671 -21.2131 19.0068 -19.0525 44.6326 -71.8282 -1.27537e-005 4.92561e-007 -2.32081e-006 7.40566 16.6873 -1.60843 4.99944e-006 -1.05374e-006 3 -8.02984 -4.9515 -0.697673 167.85 15.1464 1.08371 180 7.01577e-015 179.063 -174.78 14.5849 178.361 -3.62913e-006 -5.91964e-006 -0.623286 -16.5188 64.0603 16.7235 8.1365 25.2327 -3.48773 -164.619 13.2029 -6.14221 4.54188e-006 -4.6773e-006 -1.07125 2.69138 -16.9862 1.46636 3.40932e-006 7.52221e-007 0.0582811 16.9194 65.9603 -18.0121 -8.13649 25.2326 3.48774 
42.4947 90.7448 -5.20208 1.53667 7.59556 -1.16592 -0.406976 -2.27396 -0.0620542 -0.814732 -0.544924 -0.0872005 -0.813845 1.10006 -0.0735813 -13.8971 -13.2162 -2.82707 8.70184 17.6229 -4.87705 29.4722 -13.2399 -9.6038 61.7732 41.5469 42.239 2.18904e-006 8.97098e-007 1.14985e-006 -0.424356 33.6842 -0.78055 5.63958e-006 -4.13891e-006 -3 8.02887 -4.95142 0.697672 -27.1893 -21.2542 18.9414 -19.4075 44.8359 -71.4516 -1.27537e-005 4.92561e-007 -2.32081e-006 7.27151 16.5869 -1.55662 4.99944e-006 -1.05374e-006 3 -8.02984 -4.9515 -0.697673 167.976 15.1291 1.05799 180 7.01576e-015 179.059 -174.839 14.3923 178.378 -3.62913e-006 -5.91965e-006 -0.613988 -16.4995 64.0747 16.7346 8.1365 25.2327 -3.48773 -164.8 13.1679 -6.01907 4.54188e-006 -4.6773e-006 -1.06936 2.67347 -16.7407 1.45086 3.40932e-006 7.52221e-007 0.0597784 16.9216 65.9688 -18.0179 -8.13649 25.2326 3.48774 
42.4691 90.9332 -5.18757 1.54386 7.62599 -1.12506 -0.398902 -2.26888 -0.0563416 -0.798521 -0.534802 -0.076315 -0.797764 1.11018 -0.0629654 -14.3127 -13.6384 -2.91238 9.02176 17.9746 -4.99664 29.4261 -13.405 -9.78675 62.969 41.6501 41.4253 2.18904e-006 8.97098e-007 1.14985e-006 -0.391003 33.4868 -0.81176 5.63958e-006 -4.13891e-006 -3 8.02887 -4.95142 0.697672 -27.7221 -21.2978 18.8758 -19.7491 45.025 -71.0724 -1.27537e-005 4.92561e-007 -2.32081e-006 7.13277 16.4818 -1.50313 4.99944e-006 -1.05374e-006 3 -8.02984 -4.9515 -0.697673 168.097 15.1245 1.04707 180 7.01576e-015 179.055 -174.911 14.2135 178.396 -3.62913e-006 -5.91965e-006 -0.603419 -16.477 64.0876 16.745 8.1365 25.2327 -3.48773 -164.979 13.1535 -5.89838 4.54188e-006 -4.6773e-006 -1.06673 2.65655 -16.5316 1.43752 3.40932e-006 7.52221e-007 0.060414 16.926 65.9813 -18.0264 -8.13649 25.2326 3.48774 
